<mxfile host="app.diagrams.net" modified="2024-03-05T10:35:49.958Z" agent="Mozilla/5.0 (Windows NT 10.0; Win64; x64) AppleWebKit/537.36 (KHTML, like Gecko) Chrome/122.0.0.0 Safari/537.36 Edg/122.0.0.0" version="24.0.1" etag="zezDJLZ9X02NJwiUG1Te" type="github">
  <diagram name="Страница — 1" id="d5lUW9O6t4Gn4_s_oy4t">
    <mxGraphModel>
      <root>
        <mxCell id="0" />
        <mxCell id="1" parent="0" />
      </root>
    </mxGraphModel>
  </diagram>
</mxfile>
